<mxfile host="app.diagrams.net" modified="2023-05-23T20:01:32.797Z" agent="Mozilla/5.0 (Windows NT 10.0; Win64; x64) AppleWebKit/537.36 (KHTML, like Gecko) Chrome/113.0.0.0 Safari/537.36" etag="vuc_fOdqBP9pMTS1qoTY" version="21.3.2" type="device">
  <diagram name="Página-1" id="D1qTOwx1ozwWevRPZxOQ">
    <mxGraphModel dx="778" dy="342" grid="1" gridSize="10" guides="1" tooltips="1" connect="1" arrows="1" fold="1" page="1" pageScale="1" pageWidth="827" pageHeight="1169" math="0" shadow="0">
      <root>
        <mxCell id="0" />
        <mxCell id="1" parent="0" />
        <mxCell id="lIObYpl-k9m2GkAREmZ7-2" value="«abstract class»&lt;br&gt;&lt;b&gt;ReportGenerator&lt;/b&gt;" style="html=1;whiteSpace=wrap;" vertex="1" parent="1">
          <mxGeometry x="250" y="40" width="110" height="50" as="geometry" />
        </mxCell>
        <mxCell id="lIObYpl-k9m2GkAREmZ7-5" style="edgeStyle=orthogonalEdgeStyle;shape=flexArrow;rounded=0;orthogonalLoop=1;jettySize=auto;html=1;entryX=1;entryY=0.25;entryDx=0;entryDy=0;" edge="1" parent="1" source="lIObYpl-k9m2GkAREmZ7-3" target="lIObYpl-k9m2GkAREmZ7-2">
          <mxGeometry relative="1" as="geometry" />
        </mxCell>
        <mxCell id="lIObYpl-k9m2GkAREmZ7-3" value="«class»&lt;br&gt;PdfReportGenerator&lt;span style=&quot;color: rgb(255, 255, 255); font-family: &amp;quot;Söhne Mono&amp;quot;, Monaco, &amp;quot;Andale Mono&amp;quot;, &amp;quot;Ubuntu Mono&amp;quot;, monospace; font-size: 14px; text-align: left; background-color: rgb(0, 0, 0);&quot;&gt; &lt;/span&gt;" style="html=1;whiteSpace=wrap;" vertex="1" parent="1">
          <mxGeometry x="350" y="130" width="120" height="50" as="geometry" />
        </mxCell>
        <mxCell id="lIObYpl-k9m2GkAREmZ7-6" style="edgeStyle=orthogonalEdgeStyle;shape=flexArrow;rounded=0;orthogonalLoop=1;jettySize=auto;html=1;entryX=0;entryY=0.25;entryDx=0;entryDy=0;" edge="1" parent="1" source="lIObYpl-k9m2GkAREmZ7-4" target="lIObYpl-k9m2GkAREmZ7-2">
          <mxGeometry relative="1" as="geometry" />
        </mxCell>
        <mxCell id="lIObYpl-k9m2GkAREmZ7-4" value="«class»&lt;br&gt;CsvReportGenerator&lt;span style=&quot;color: rgb(255, 255, 255); font-family: &amp;quot;Söhne Mono&amp;quot;, Monaco, &amp;quot;Andale Mono&amp;quot;, &amp;quot;Ubuntu Mono&amp;quot;, monospace; font-size: 14px; text-align: left; background-color: rgb(0, 0, 0);&quot;&gt; &lt;/span&gt;" style="html=1;whiteSpace=wrap;" vertex="1" parent="1">
          <mxGeometry x="140" y="130" width="120" height="50" as="geometry" />
        </mxCell>
        <mxCell id="lIObYpl-k9m2GkAREmZ7-8" style="edgeStyle=orthogonalEdgeStyle;shape=flexArrow;rounded=0;orthogonalLoop=1;jettySize=auto;html=1;" edge="1" parent="1" source="lIObYpl-k9m2GkAREmZ7-7" target="lIObYpl-k9m2GkAREmZ7-9">
          <mxGeometry relative="1" as="geometry">
            <mxPoint x="420" y="235" as="targetPoint" />
          </mxGeometry>
        </mxCell>
        <mxCell id="lIObYpl-k9m2GkAREmZ7-11" style="edgeStyle=orthogonalEdgeStyle;shape=flexArrow;rounded=0;orthogonalLoop=1;jettySize=auto;html=1;entryX=0;entryY=0.5;entryDx=0;entryDy=0;" edge="1" parent="1" source="lIObYpl-k9m2GkAREmZ7-7" target="lIObYpl-k9m2GkAREmZ7-3">
          <mxGeometry relative="1" as="geometry" />
        </mxCell>
        <mxCell id="lIObYpl-k9m2GkAREmZ7-12" style="edgeStyle=orthogonalEdgeStyle;shape=flexArrow;rounded=0;orthogonalLoop=1;jettySize=auto;html=1;entryX=0.41;entryY=0.993;entryDx=0;entryDy=0;entryPerimeter=0;" edge="1" parent="1" source="lIObYpl-k9m2GkAREmZ7-7" target="lIObYpl-k9m2GkAREmZ7-4">
          <mxGeometry relative="1" as="geometry">
            <mxPoint x="190" y="190" as="targetPoint" />
            <Array as="points">
              <mxPoint x="189" y="250" />
            </Array>
          </mxGeometry>
        </mxCell>
        <mxCell id="lIObYpl-k9m2GkAREmZ7-7" value="«class»&lt;br&gt;Main&lt;span style=&quot;color: rgb(255, 255, 255); font-family: &amp;quot;Söhne Mono&amp;quot;, Monaco, &amp;quot;Andale Mono&amp;quot;, &amp;quot;Ubuntu Mono&amp;quot;, monospace; font-size: 14px; text-align: left; background-color: rgb(0, 0, 0);&quot;&gt;&lt;/span&gt;" style="html=1;whiteSpace=wrap;" vertex="1" parent="1">
          <mxGeometry x="245" y="220" width="120" height="50" as="geometry" />
        </mxCell>
        <mxCell id="lIObYpl-k9m2GkAREmZ7-9" value="Client" style="shape=umlActor;verticalLabelPosition=bottom;verticalAlign=top;html=1;" vertex="1" parent="1">
          <mxGeometry x="414" y="240" width="30" height="60" as="geometry" />
        </mxCell>
      </root>
    </mxGraphModel>
  </diagram>
</mxfile>
